<?xml version="1.0" encoding="UTF-8"?>
<svg id="Layer_1" data-name="Layer 1" xmlns="http://www.w3.org/2000/svg" viewBox="0 0 380.46 263.84">
  <defs>
    <style>
      .cls-1 {
        fill: none;
      }

      .cls-1, .cls-2, .cls-3, .cls-4, .cls-5 {
        stroke-width: 0px;
      }

      .cls-2 {
        fill: #4abb89;
      }

      .cls-3 {
        fill: #fdb817;
      }

      .cls-4 {
        fill: #ffd384;
      }

      .cls-5 {
        fill: #005b38;
      }
    </style>
  </defs>
  <path class="cls-3" d="M96.11,170.94l54.22,92.9c33.48,0,60.11-19.62,72.65-46.09-10.38,3.19-21.39,4.92-32.82,4.92-39.57,0-74.29-20.65-94.06-51.74Z"/>
  <path class="cls-3" d="M142.45,10.59l-4.75-8.14c-.89-1.52-2.51-2.45-4.27-2.45H4.96C1.14,0-1.24,4.14.68,7.44l91.04,155.97c-8.26-15.56-12.95-33.3-12.95-52.14,0-44.45,26.04-82.81,63.69-100.68Z"/>
  <path class="cls-5" d="M375.5,0h-118.15c-1.76,0-3.39.93-4.27,2.45l-7.21,12.35c33.29,19.26,55.71,55.24,55.71,96.47,0,19.79-5.18,38.36-14.23,54.47.01,0,.03,0,.04,0h0L379.77,7.44c1.93-3.3-.45-7.44-4.27-7.44Z"/>
  <path class="cls-1" d="M96.11,170.94l-4.39-7.53c1.37,2.57,2.84,5.08,4.39,7.53Z"/>
  <path class="cls-4" d="M219.73,142.99L142.45,10.59c-37.65,17.87-63.69,56.23-63.69,100.68,0,18.84,4.7,36.58,12.95,52.14l4.39,7.53c19.76,31.09,54.49,51.74,94.06,51.74,11.42,0,22.44-1.73,32.82-4.92,10.69-22.57,11.13-50.11-3.26-74.77Z"/>
  <path class="cls-2" d="M245.87,14.81l-22.76,39c-28.95,49.6,6.81,111.91,64.24,111.94,9.05-16.11,14.23-34.68,14.23-54.47,0-41.23-22.41-77.2-55.71-96.47Z"/>
</svg>