<?xml version="1.0" encoding="UTF-8"?>
<svg id="Layer_1" data-name="Layer 1" xmlns="http://www.w3.org/2000/svg" viewBox="0 0 847.25 264.64">
  <defs>
    <style>
      .cls-1 {
        fill: none;
      }

      .cls-1, .cls-2, .cls-3, .cls-4, .cls-5, .cls-6 {
        stroke-width: 0px;
      }

      .cls-3 {
        fill: #1b583a;
      }

      .cls-4 {
        fill: #ffd68d;
      }

      .cls-5 {
        fill: #f6bb43;
      }

      .cls-6 {
        fill: #66bf8e;
      }
    </style>
  </defs>
  <g>
    <g>
      <path class="cls-5" d="M96.11,171.07l54.22,92.9c33.48,0,60.11-19.62,72.65-46.09-10.38,3.19-21.39,4.92-32.82,4.92-39.57,0-74.29-20.65-94.06-51.74Z"/>
      <path class="cls-5" d="M142.45,10.72l-4.75-8.14c-.89-1.52-2.51-2.45-4.27-2.45H4.96C1.14.13-1.24,4.28.68,7.57l91.04,155.97c-8.26-15.56-12.95-33.3-12.95-52.14,0-44.45,26.04-82.81,63.69-100.68Z"/>
      <path class="cls-3" d="M375.5.13h-118.15c-1.76,0-3.39.93-4.27,2.45l-7.21,12.35c33.29,19.26,55.71,55.24,55.71,96.47,0,19.79-5.18,38.36-14.23,54.47.01,0,.03,0,.04,0h0L379.77,7.57c1.93-3.3-.45-7.44-4.27-7.44Z"/>
      <path class="cls-1" d="M96.11,171.07l-4.39-7.53c1.37,2.57,2.84,5.08,4.39,7.53Z"/>
      <path class="cls-1" d="M223.1,53.94l22.76-39C229.48,5.45,210.46,0,190.17,0c-17.08,0-33.25,3.85-47.71,10.72l77.28,132.4c14.39,24.65,13.94,52.2,3.26,74.77,27.53-8.48,50.49-27.34,64.35-52.01-57.42-.03-93.19-62.33-64.24-111.94Z"/>
      <path class="cls-4" d="M219.73,143.12L142.45,10.72c-37.65,17.87-63.69,56.23-63.69,100.68,0,18.84,4.7,36.58,12.95,52.14l4.39,7.53c19.76,31.09,54.49,51.74,94.06,51.74,11.42,0,22.44-1.73,32.82-4.92,10.69-22.57,11.13-50.11-3.26-74.77Z"/>
      <path class="cls-6" d="M245.87,14.94l-22.76,39c-28.95,49.6,6.81,111.91,64.24,111.94,9.05-16.11,14.23-34.68,14.23-54.47,0-41.23-22.41-77.2-55.71-96.47Z"/>
    </g>
    <g>
      <g>
        <path class="cls-2" d="M342.62,136.26v55.24h-19.49v-35.98c0-10.64,8.62-19.26,19.26-19.26h.23Z"/>
        <path class="cls-2" d="M342.62,120.54h0c0,10.03-8.13,18.15-18.15,18.15h-1.34v-18.15h19.49Z"/>
      </g>
      <g>
        <path class="cls-2" d="M338.61,217.45v47.19h-16.65v-30.74c0-9.09,7.37-16.45,16.45-16.45h.2Z"/>
        <path class="cls-2" d="M338.61,204.03h0c0,8.56-6.94,15.51-15.51,15.51h-1.14v-15.51h16.65Z"/>
      </g>
      <g>
        <path class="cls-2" d="M418.55,136.26v55.24h-19.49v-35.98c0-10.64,8.62-19.26,19.26-19.26h.23Z"/>
        <path class="cls-2" d="M418.55,120.54h0c0,10.03-8.13,18.15-18.15,18.15h-1.34v-18.15h19.49Z"/>
      </g>
      <path class="cls-2" d="M789.43,231.21h0c0-8.56,6.94-15.51,15.51-15.51h1.14v15.51h-16.65Z"/>
      <path class="cls-2" d="M385.38,150.47c-3.59-1.87-7.11-2.8-10.55-2.8-1.8,0-3.25.36-4.36,1.08-1.11.72-1.67,1.69-1.67,2.91,0,.65.09,1.17.27,1.56.18.39.57.77,1.18,1.13.61.36,1.51.68,2.69.97,1.19.29,2.75.65,4.68,1.08,5.39,1.08,9.4,3,12.06,5.76,2.66,2.77,3.98,6.3,3.98,10.61,0,3.23-.65,6.14-1.94,8.72-1.29,2.58-3.09,4.76-5.38,6.51-2.3,1.76-5.06,3.12-8.29,4.09-3.23.97-6.78,1.45-10.66,1.45-7.47,0-14.83-2.12-22.08-6.35l7.11-13.78c5.46,3.73,10.62,5.6,15.51,5.6,1.79,0,3.27-.39,4.42-1.19,1.15-.79,1.72-1.79,1.72-3.01,0-.72-.09-1.31-.27-1.78-.18-.47-.56-.9-1.13-1.29-.58-.39-1.42-.75-2.53-1.08-1.11-.32-2.57-.66-4.36-1.02-6.03-1.22-10.25-3.03-12.65-5.44-2.41-2.4-3.61-5.72-3.61-9.96,0-3.09.57-5.87,1.72-8.35,1.15-2.48,2.8-4.58,4.95-6.3,2.15-1.72,4.75-3.05,7.81-3.98,3.05-.93,6.44-1.4,10.18-1.4,6.1,0,12.02,1.19,17.77,3.55l-6.57,12.71Z"/>
      <path class="cls-2" d="M840.17,226.1c-3.07-1.59-6.07-2.39-9.02-2.39-1.53,0-2.78.31-3.73.92-.95.61-1.43,1.44-1.43,2.48,0,.55.08,1,.23,1.33.15.34.49.66,1.01.97.52.31,1.29.58,2.3.83,1.01.25,2.35.55,4,.92,4.6.92,8.03,2.56,10.3,4.92,2.27,2.36,3.4,5.38,3.4,9.06,0,2.76-.55,5.24-1.66,7.45-1.1,2.21-2.64,4.06-4.6,5.56-1.96,1.5-4.32,2.67-7.08,3.5-2.76.83-5.79,1.24-9.11,1.24-6.38,0-12.66-1.81-18.86-5.43l6.07-11.77c4.66,3.19,9.08,4.78,13.25,4.78,1.53,0,2.79-.34,3.77-1.01.98-.67,1.47-1.53,1.47-2.58,0-.61-.08-1.12-.23-1.52-.15-.4-.48-.77-.97-1.1-.49-.34-1.21-.64-2.16-.92-.95-.28-2.19-.57-3.73-.87-5.15-1.04-8.75-2.59-10.81-4.65-2.06-2.05-3.08-4.89-3.08-8.51,0-2.64.49-5.01,1.47-7.13.98-2.12,2.39-3.91,4.23-5.38,1.84-1.47,4.06-2.61,6.67-3.4,2.61-.8,5.5-1.2,8.69-1.2,5.21,0,10.27,1.01,15.18,3.04l-5.61,10.85Z"/>
      <path class="cls-2" d="M449.9,152.52v38.98h-19.49v-38.98h-6.46v-16.26h6.46c0-9.16,7.42-16.58,16.58-16.58h2.91v16.58h11.09v16.26h-11.09Z"/>
      <path class="cls-2" d="M275.97,215.7l11.22,24.19,11.41-24.19h18.58l-24.56,47.19h-11.13l-24.28-47.19h18.76Z"/>
      <path class="cls-2" d="M358.86,242.11c0,7.17,3.37,10.76,10.12,10.76,3.62,0,6.35-1.47,8.19-4.41h16.1c-3.25,10.79-11.38,16.19-24.38,16.19-3.99,0-7.63-.6-10.95-1.79s-6.15-2.9-8.51-5.11c-2.36-2.21-4.19-4.84-5.47-7.91-1.29-3.07-1.93-6.5-1.93-10.3s.61-7.47,1.84-10.62c1.23-3.16,2.97-5.84,5.24-8.05s5.01-3.91,8.23-5.11c3.22-1.2,6.85-1.79,10.9-1.79s7.57.6,10.76,1.79c3.19,1.2,5.89,2.93,8.09,5.2,2.21,2.27,3.89,5.04,5.06,8.32,1.16,3.28,1.75,6.98,1.75,11.08v1.75h-35.05ZM378.36,232.45c-.55-2.33-1.69-4.2-3.4-5.61-1.72-1.41-3.8-2.12-6.25-2.12-2.58,0-4.68.68-6.3,2.02-1.63,1.35-2.65,3.25-3.08,5.7h19.04Z"/>
      <path class="cls-2" d="M419.07,229.59v33.3h-16.65v-33.3h-5.52v-13.89h5.52c0-7.82,6.34-14.17,14.17-14.17h2.48v14.17h9.47v13.89h-9.47Z"/>
      <path class="cls-2" d="M448.19,215.7h0v5.98c2.27-2.76,4.57-4.61,6.9-5.56,2.33-.95,5.06-1.43,8.19-1.43,3.31,0,6.15.54,8.51,1.61,2.36,1.07,4.37,2.59,6.02,4.55,1.35,1.59,2.27,3.37,2.76,5.34.49,1.96.74,4.2.74,6.71v29.99h-16.65v-23.82c0-2.33-.17-4.22-.51-5.66-.34-1.44-.94-2.59-1.8-3.45-.74-.74-1.56-1.26-2.48-1.56-.92-.31-1.9-.46-2.94-.46-2.82,0-4.98.84-6.49,2.53-1.5,1.69-2.25,4.09-2.25,7.22v25.2h-16.65v-30.54c0-9.19,7.45-16.65,16.65-16.65Z"/>
      <path class="cls-2" d="M522.56,215.7h16.74v30.45c0,9.25-7.5,16.74-16.74,16.74h0v-5.24c-3.56,4.48-8.37,6.72-14.44,6.72-3.43,0-6.59-.63-9.47-1.89-2.89-1.26-5.4-3.02-7.54-5.29-2.15-2.27-3.82-4.94-5.02-8-1.2-3.07-1.79-6.41-1.79-10.03,0-3.37.58-6.58,1.75-9.61,1.16-3.03,2.79-5.69,4.88-7.96,2.08-2.27,4.57-4.06,7.45-5.38,2.88-1.32,6.07-1.98,9.57-1.98,5.89,0,10.76,2.05,14.63,6.16v-4.69ZM501.59,239.16c0,1.53.28,2.96.83,4.28.55,1.32,1.3,2.47,2.25,3.45.95.98,2.08,1.75,3.4,2.3,1.32.55,2.74.83,4.28.83s2.87-.28,4.19-.83c1.32-.55,2.45-1.32,3.4-2.3.95-.98,1.72-2.12,2.3-3.4.58-1.29.88-2.67.88-4.14s-.29-2.87-.88-4.19c-.58-1.32-1.35-2.47-2.3-3.45-.95-.98-2.09-1.75-3.4-2.3-1.32-.55-2.71-.83-4.19-.83s-2.96.28-4.28.83c-1.32.55-2.45,1.32-3.4,2.3-.95.98-1.7,2.1-2.25,3.36-.55,1.26-.83,2.62-.83,4.09Z"/>
      <path class="cls-2" d="M558.95,215.7h0v5.8c4.54-4.35,9.63-6.53,15.27-6.53,6.99,0,12.33,2.94,16.01,8.83,3.74-5.95,9.08-8.92,16.01-8.92,2.21,0,4.29.32,6.26.97,1.96.64,3.65,1.66,5.06,3.04,1.41,1.38,2.53,3.17,3.36,5.38.83,2.21,1.24,4.87,1.24,8v30.63h-16.65v-23.27c0-2.39-.17-4.35-.51-5.89-.34-1.53-.83-2.73-1.47-3.59-.64-.86-1.4-1.44-2.25-1.75-.86-.31-1.78-.46-2.76-.46-5.34,0-8,3.9-8,11.68v23.27h-16.65v-23.27c0-2.39-.15-4.37-.46-5.93-.31-1.56-.75-2.81-1.33-3.73-.58-.92-1.33-1.55-2.25-1.88-.92-.34-1.99-.51-3.22-.51-1.04,0-2.02.15-2.94.46-.92.31-1.73.91-2.44,1.79-.7.89-1.26,2.12-1.65,3.68-.4,1.56-.6,3.6-.6,6.12v23.27h-16.65v-30.54c0-9.2,7.46-16.65,16.65-16.65Z"/>
      <path class="cls-2" d="M647.71,229.59v33.3h-16.65v-33.3h-5.52v-13.89h5.52c0-7.82,6.34-14.17,14.17-14.17h2.48v14.17h9.47v13.89h-9.47Z"/>
      <path class="cls-2" d="M659.48,238.89c0-3.5.7-6.76,2.12-9.8,1.41-3.03,3.37-5.67,5.89-7.91,2.51-2.24,5.5-4,8.97-5.29,3.46-1.29,7.25-1.93,11.36-1.93s7.8.63,11.27,1.89c3.46,1.26,6.47,3.01,9.01,5.24,2.54,2.24,4.52,4.91,5.93,8,1.41,3.1,2.12,6.52,2.12,10.26s-.72,7.16-2.16,10.26c-1.44,3.1-3.42,5.77-5.93,8-2.52,2.24-5.53,3.97-9.06,5.2-3.53,1.23-7.35,1.84-11.45,1.84s-7.79-.61-11.22-1.84c-3.43-1.23-6.39-2.97-8.88-5.24-2.48-2.27-4.43-4.98-5.84-8.14-1.41-3.16-2.12-6.67-2.12-10.53ZM677.05,239.07c0,1.6.29,3.05.87,4.37.58,1.32,1.35,2.47,2.3,3.45.95.98,2.08,1.75,3.4,2.3,1.32.55,2.71.83,4.19.83s2.87-.28,4.19-.83c1.32-.55,2.45-1.32,3.4-2.3.95-.98,1.72-2.13,2.3-3.45.58-1.32.87-2.74.87-4.28s-.29-2.87-.87-4.19c-.58-1.32-1.35-2.47-2.3-3.45-.95-.98-2.08-1.75-3.4-2.3s-2.71-.83-4.19-.83-2.87.28-4.19.83c-1.32.55-2.45,1.32-3.4,2.3-.95.98-1.72,2.12-2.3,3.4-.58,1.29-.87,2.67-.87,4.14Z"/>
      <path class="cls-2" d="M735.09,215.7v26.58c0,5.83,2.82,8.74,8.46,8.74s8.46-2.91,8.46-8.74v-26.58h16.65v29.8c0,6.38-2.1,11.16-6.3,14.35-4.2,3.19-10.47,4.78-18.81,4.78s-14.61-1.6-18.81-4.78c-4.2-3.19-6.3-7.97-6.3-14.35v-13.15c0-9.19,7.45-16.65,16.65-16.65h0Z"/>
      <path class="cls-2" d="M788.76,242.66v20.24h-16.65v-47.19h16.65v26.95Z"/>
    </g>
  </g>
  <g>
    <path class="cls-2" d="M485.01,176.93v14.57h-2.56v-14.57h-3.9v-2.41h10.36v2.41h-3.89Z"/>
    <path class="cls-2" d="M498.34,180.79h2.49v10.71h-2.49v-1.12c-1.02.95-2.11,1.43-3.29,1.43-1.48,0-2.71-.54-3.67-1.61-.96-1.09-1.44-2.46-1.44-4.09s.48-2.94,1.44-4.01c.96-1.07,2.16-1.61,3.61-1.61,1.25,0,2.36.51,3.35,1.54v-1.24ZM492.47,186.11c0,1.03.27,1.86.82,2.51.56.65,1.28.98,2.13.98.92,0,1.66-.31,2.22-.95.56-.65.85-1.48.85-2.48s-.28-1.83-.85-2.48c-.56-.64-1.3-.96-2.2-.96-.85,0-1.56.32-2.13.97-.56.65-.85,1.46-.85,2.42Z"/>
    <path class="cls-2" d="M504.25,176.33c0-.43.16-.81.47-1.12.32-.32.69-.47,1.13-.47s.83.16,1.14.47c.32.31.47.69.47,1.13s-.16.83-.47,1.14c-.31.32-.69.47-1.13.47s-.83-.16-1.14-.47c-.32-.31-.47-.7-.47-1.15ZM507.09,180.79v10.71h-2.47v-10.71h2.47Z"/>
    <path class="cls-2" d="M513.38,172.92v18.57h-2.47v-18.57h2.47Z"/>
    <path class="cls-2" d="M516.68,186.06c0-1.55.55-2.86,1.66-3.95,1.11-1.08,2.46-1.63,4.05-1.63s2.95.55,4.07,1.64c1.1,1.09,1.65,2.43,1.65,4.02s-.55,2.95-1.66,4.04c-1.11,1.08-2.48,1.62-4.1,1.62s-2.95-.55-4.04-1.65c-1.08-1.08-1.63-2.45-1.63-4.09ZM519.21,186.11c0,1.07.29,1.92.86,2.54.59.63,1.36.95,2.32.95s1.74-.31,2.32-.93c.58-.62.87-1.46.87-2.5s-.29-1.87-.87-2.5c-.59-.63-1.36-.95-2.32-.95s-1.71.32-2.3.95c-.59.63-.88,1.44-.88,2.44Z"/>
    <path class="cls-2" d="M531.4,180.79h2.47v.96c.46-.48.86-.8,1.21-.98.36-.18.78-.27,1.28-.27.65,0,1.33.21,2.04.64l-1.13,2.27c-.47-.34-.93-.51-1.38-.51-1.35,0-2.02,1.02-2.02,3.06v5.55h-2.47v-10.71Z"/>
    <path class="cls-2" d="M550.1,186.72h-7.67c.07.88.35,1.58.86,2.1.51.51,1.16.77,1.95.77.62,0,1.12-.15,1.53-.44.4-.29.85-.84,1.35-1.63l2.09,1.17c-.32.55-.66,1.02-1.02,1.41-.36.39-.74.71-1.15.97-.41.25-.85.44-1.33.56s-.99.18-1.55.18c-1.6,0-2.88-.51-3.85-1.54-.97-1.03-1.45-2.4-1.45-4.11s.47-3.06,1.41-4.11c.95-1.03,2.2-1.55,3.76-1.55s2.82.5,3.74,1.51c.91,1,1.36,2.38,1.36,4.15v.58ZM547.56,184.7c-.34-1.32-1.18-1.98-2.5-1.98-.3,0-.58.05-.85.14-.26.09-.5.22-.72.4-.22.17-.4.38-.56.62-.15.24-.27.52-.35.82h4.97Z"/>
    <path class="cls-2" d="M561.37,172.92h2.49v18.57h-2.49v-1.12c-.97.95-2.08,1.43-3.31,1.43-1.47,0-2.68-.54-3.65-1.61-.96-1.09-1.44-2.46-1.44-4.09s.48-2.93,1.44-4c.95-1.08,2.15-1.62,3.6-1.62,1.25,0,2.38.51,3.36,1.54v-9.1ZM555.5,186.11c0,1.03.27,1.86.82,2.51.56.65,1.28.98,2.13.98.92,0,1.66-.31,2.22-.95.56-.65.85-1.48.85-2.48s-.28-1.83-.85-2.48c-.56-.64-1.3-.96-2.2-.96-.85,0-1.56.32-2.13.97-.56.65-.85,1.46-.85,2.42Z"/>
    <path class="cls-2" d="M585.12,176.93h-6.81v4.08h6.61v2.41h-6.61v5.67h6.81v2.41h-9.37v-16.98h9.37v2.41Z"/>
    <path class="cls-2" d="M592.01,185.7l-3.85-4.92h2.95l2.39,3.12,2.43-3.12h3.04l-3.96,4.92,4.58,5.79h-2.95l-3.15-4-3.22,4h-3.02l4.76-5.79Z"/>
    <path class="cls-2" d="M604.41,197.32h-2.47v-16.54h2.47v1.17c.98-.97,2.08-1.46,3.32-1.46,1.47,0,2.69.54,3.64,1.63.97,1.08,1.45,2.44,1.45,4.08s-.48,2.94-1.44,4.01c-.95,1.06-2.16,1.59-3.61,1.59-1.25,0-2.38-.5-3.37-1.51v7.03ZM610.29,186.21c0-1.03-.28-1.86-.83-2.51-.57-.65-1.28-.98-2.13-.98-.91,0-1.65.32-2.21.95s-.85,1.46-.85,2.48.28,1.83.85,2.49c.56.64,1.29.96,2.2.96.86,0,1.57-.32,2.12-.97.57-.65.86-1.45.86-2.42Z"/>
    <path class="cls-2" d="M625.86,186.72h-7.67c.07.88.35,1.58.86,2.1.51.51,1.16.77,1.95.77.62,0,1.12-.15,1.53-.44.4-.29.85-.84,1.35-1.63l2.09,1.17c-.32.55-.66,1.02-1.02,1.41-.36.39-.74.71-1.15.97-.41.25-.85.44-1.33.56s-.99.18-1.55.18c-1.6,0-2.88-.51-3.85-1.54-.97-1.03-1.45-2.4-1.45-4.11s.47-3.06,1.41-4.11c.95-1.03,2.2-1.55,3.76-1.55s2.82.5,3.74,1.51c.91,1,1.36,2.38,1.36,4.15v.58ZM623.32,184.7c-.34-1.32-1.18-1.98-2.5-1.98-.3,0-.58.05-.85.14-.26.09-.5.22-.72.4-.22.17-.4.38-.56.62-.15.24-.27.52-.35.82h4.97Z"/>
    <path class="cls-2" d="M629.25,180.79h2.47v.96c.46-.48.86-.8,1.21-.98.36-.18.78-.27,1.28-.27.65,0,1.33.21,2.04.64l-1.13,2.27c-.47-.34-.93-.51-1.38-.51-1.35,0-2.02,1.02-2.02,3.06v5.55h-2.47v-10.71Z"/>
    <path class="cls-2" d="M638.31,176.33c0-.43.16-.81.47-1.12.32-.32.69-.47,1.13-.47s.83.16,1.14.47c.32.31.47.69.47,1.13s-.16.83-.47,1.14c-.31.32-.69.47-1.13.47s-.83-.16-1.14-.47c-.32-.31-.47-.7-.47-1.15ZM641.16,180.79v10.71h-2.47v-10.71h2.47Z"/>
    <path class="cls-2" d="M654.72,186.72h-7.67c.07.88.35,1.58.86,2.1.51.51,1.16.77,1.95.77.62,0,1.12-.15,1.53-.44.4-.29.85-.84,1.35-1.63l2.09,1.17c-.32.55-.66,1.02-1.02,1.41-.36.39-.74.71-1.15.97-.41.25-.85.44-1.33.56s-.99.18-1.55.18c-1.6,0-2.88-.51-3.85-1.54-.97-1.03-1.45-2.4-1.45-4.11s.47-3.06,1.41-4.11c.95-1.03,2.2-1.55,3.76-1.55s2.82.5,3.74,1.51c.91,1,1.36,2.38,1.36,4.15v.58ZM652.18,184.7c-.34-1.32-1.18-1.98-2.5-1.98-.3,0-.58.05-.85.14-.26.09-.5.22-.72.4-.22.17-.4.38-.56.62-.15.24-.27.52-.35.82h4.97Z"/>
    <path class="cls-2" d="M658.1,180.79h2.49v.99c.86-.86,1.84-1.29,2.92-1.29,1.25,0,2.22.39,2.91,1.18.6.67.9,1.76.9,3.27v6.56h-2.49v-5.98c0-1.06-.15-1.78-.44-2.19-.29-.41-.81-.62-1.56-.62-.82,0-1.4.27-1.75.81-.34.54-.51,1.47-.51,2.8v5.17h-2.49v-10.71Z"/>
    <path class="cls-2" d="M679.46,181.25v3.29c-.56-.69-1.07-1.16-1.52-1.42-.44-.26-.96-.4-1.55-.4-.93,0-1.7.33-2.32.98-.62.65-.92,1.47-.92,2.45s.3,1.83.89,2.47c.6.65,1.37.97,2.3.97.59,0,1.12-.13,1.57-.38.44-.25.96-.73,1.55-1.45v3.27c-1,.52-2.01.78-3.01.78-1.66,0-3.04-.54-4.16-1.61-1.11-1.08-1.67-2.42-1.67-4.01s.56-2.95,1.69-4.05,2.51-1.65,4.16-1.65c1.06,0,2.05.25,2.99.76Z"/>
    <path class="cls-2" d="M692.29,186.72h-7.67c.07.88.35,1.58.86,2.1.51.51,1.16.77,1.95.77.62,0,1.12-.15,1.53-.44.4-.29.85-.84,1.35-1.63l2.09,1.17c-.32.55-.66,1.02-1.02,1.41-.36.39-.74.71-1.15.97-.41.25-.85.44-1.33.56s-.99.18-1.55.18c-1.6,0-2.88-.51-3.85-1.54-.97-1.03-1.45-2.4-1.45-4.11s.47-3.06,1.41-4.11c.95-1.03,2.2-1.55,3.76-1.55s2.82.5,3.74,1.51c.91,1,1.36,2.38,1.36,4.15v.58ZM689.75,184.7c-.34-1.32-1.18-1.98-2.5-1.98-.3,0-.58.05-.85.14-.26.09-.5.22-.72.4-.22.17-.4.38-.56.62-.15.24-.27.52-.35.82h4.97Z"/>
    <path class="cls-2" d="M701.89,182.61l-2.04,1.09c-.32-.66-.72-.99-1.2-.99-.23,0-.42.08-.58.23-.16.15-.24.34-.24.58,0,.41.48.82,1.43,1.22,1.31.56,2.2,1.09,2.65,1.56.46.48.68,1.12.68,1.92,0,1.03-.38,1.9-1.14,2.6-.74.66-1.63.99-2.68.99-1.8,0-3.07-.88-3.82-2.63l2.11-.98c.29.51.52.84.67.98.3.28.66.42,1.08.42.84,0,1.25-.38,1.25-1.14,0-.44-.32-.85-.97-1.23-.25-.12-.5-.25-.75-.36s-.5-.24-.76-.36c-.72-.35-1.22-.7-1.52-1.06-.37-.45-.56-1.02-.56-1.73,0-.93.32-1.7.96-2.31.65-.61,1.44-.91,2.38-.91,1.37,0,2.39.71,3.06,2.12Z"/>
    <path class="cls-2" d="M711.54,184.98h4.9v2.16h-4.9v-2.16Z"/>
    <path class="cls-2" d="M729.35,174.52v10.23c0,1.46.24,2.53.71,3.2.71.98,1.71,1.46,3,1.46s2.3-.49,3.01-1.46c.48-.65.71-1.72.71-3.2v-10.23h2.56v10.93c0,1.79-.56,3.26-1.67,4.42-1.25,1.29-2.79,1.94-4.62,1.94s-3.36-.65-4.61-1.94c-1.12-1.16-1.67-2.63-1.67-4.42v-10.93h2.56Z"/>
    <path class="cls-2" d="M743.78,180.79h2.49v.99c.86-.86,1.84-1.29,2.92-1.29,1.25,0,2.22.39,2.91,1.18.6.67.9,1.76.9,3.27v6.56h-2.49v-5.98c0-1.06-.15-1.78-.44-2.19-.29-.41-.81-.62-1.56-.62-.82,0-1.4.27-1.75.81-.34.54-.51,1.47-.51,2.8v5.17h-2.49v-10.71Z"/>
    <path class="cls-2" d="M756.43,176.33c0-.43.16-.81.47-1.12.32-.32.69-.47,1.13-.47s.83.16,1.14.47c.32.31.47.69.47,1.13s-.16.83-.47,1.14c-.31.32-.69.47-1.13.47s-.83-.16-1.14-.47c-.32-.31-.47-.7-.47-1.15ZM759.27,180.79v10.71h-2.47v-10.71h2.47Z"/>
    <path class="cls-2" d="M770.98,197.32v-7.03c-.98,1-2.1,1.51-3.36,1.51-1.44,0-2.64-.53-3.6-1.59-.96-1.07-1.44-2.41-1.44-4.01s.48-2.99,1.44-4.08c.97-1.08,2.18-1.63,3.64-1.63,1.24,0,2.35.49,3.32,1.46v-1.17h2.49v16.54h-2.49ZM765.11,186.09c0,1.03.28,1.87.83,2.52.56.66,1.26.99,2.12.99.91,0,1.65-.31,2.21-.95.57-.64.86-1.47.86-2.48s-.28-1.83-.85-2.48c-.56-.64-1.3-.96-2.2-.96-.85,0-1.56.32-2.13.97-.56.65-.85,1.45-.85,2.4Z"/>
    <path class="cls-2" d="M779.99,180.79v6.15c0,1.77.7,2.66,2.1,2.66s2.1-.89,2.1-2.66v-6.15h2.47v6.2c0,.86-.11,1.6-.32,2.22-.21.56-.56,1.06-1.07,1.51-.83.73-1.9,1.09-3.19,1.09s-2.34-.36-3.18-1.09c-.51-.45-.88-.95-1.09-1.51-.21-.5-.31-1.24-.31-2.22v-6.2h2.47Z"/>
    <path class="cls-2" d="M800.22,186.72h-7.67c.07.88.35,1.58.86,2.1.51.51,1.16.77,1.95.77.62,0,1.12-.15,1.53-.44.4-.29.85-.84,1.35-1.63l2.09,1.17c-.32.55-.66,1.02-1.02,1.41-.36.39-.74.71-1.15.97-.41.25-.85.44-1.33.56s-.99.18-1.55.18c-1.6,0-2.88-.51-3.85-1.54-.97-1.03-1.45-2.4-1.45-4.11s.47-3.06,1.41-4.11c.95-1.03,2.2-1.55,3.76-1.55s2.82.5,3.74,1.51c.91,1,1.36,2.38,1.36,4.15v.58ZM797.68,184.7c-.34-1.32-1.18-1.98-2.5-1.98-.3,0-.58.05-.85.14-.26.09-.5.22-.72.4-.22.17-.4.38-.56.62-.15.24-.27.52-.35.82h4.97Z"/>
    <path class="cls-2" d="M815.13,184.16l-5.54-9.64h2.95l3.88,6.78,3.89-6.78h2.95l-5.56,9.64v7.33h-2.56v-7.33Z"/>
    <path class="cls-2" d="M823.38,186.06c0-1.55.55-2.86,1.66-3.95,1.11-1.08,2.46-1.63,4.05-1.63s2.95.55,4.07,1.64c1.1,1.09,1.65,2.43,1.65,4.02s-.55,2.95-1.66,4.04c-1.11,1.08-2.48,1.62-4.1,1.62s-2.95-.55-4.04-1.65c-1.08-1.08-1.63-2.45-1.63-4.09ZM825.91,186.11c0,1.07.29,1.92.86,2.54.59.63,1.36.95,2.32.95s1.74-.31,2.32-.93c.58-.62.87-1.46.87-2.5s-.29-1.87-.87-2.5c-.59-.63-1.36-.95-2.32-.95s-1.71.32-2.3.95c-.59.63-.88,1.44-.88,2.44Z"/>
    <path class="cls-2" d="M840.57,180.79v6.15c0,1.77.7,2.66,2.1,2.66s2.1-.89,2.1-2.66v-6.15h2.47v6.2c0,.86-.11,1.6-.32,2.22-.21.56-.56,1.06-1.07,1.51-.83.73-1.9,1.09-3.19,1.09s-2.34-.36-3.18-1.09c-.51-.45-.88-.95-1.09-1.51-.21-.5-.31-1.24-.31-2.22v-6.2h2.47Z"/>
  </g>
</svg>